<svg width="37" height="43" viewBox="0 0 37 43" fill="none" xmlns="http://www.w3.org/2000/svg">
<path d="M14.6233 18.2589V16.9501H22.0408V19.2787H23.9804V22.2154H22.0408V24.4058H23.5941V26.8399H22.0408V27.4815H14.6233V26.0446H13.7916V24.4058H14.6233V23.0107H17.3563V19.2787H14.6233V18.2589ZM22.0399 1.43066V2.73948V6.32781H23.426V7.27852H22.0399V8.28376H24.8111V9.23447H22.0399V11.7194H21.4173V13.6245H12.4056V11.7194H13.828V9.23447H17.3945V8.28376H15.4186V7.27852H16.0093V6.32781H14.6233V1.43066H11.2976V6.32781H12.6837V7.27852H11.2976V8.28376H14.0689V9.23447H11.2976V11.7194H10.6705V13.6245H0V16.0012H2.21681V16.9501H14.3179V19.2787H15.4631V22.2154H13.5235L11.2976 24.4058H12.6928V26.0446H13.5244L11.2985 27.4806H2.21862V30.8063H11.2985V34.291H12.1302V39.5235H12.1756V43.0001H14.865V39.5235H15.4558V34.291H14.6242V30.8063H22.0417V34.291H22.8706V39.5235H21.4846V43.0001H24.8093V39.5235H26.1954V34.291H25.3637V30.4891H34.4427V27.4815H25.3665V26.0446H24.5348V24.4058H25.3665V22.2154H27.3061V19.2787H25.3665V16.9501H34.4455V16.0012H32.2287V13.6245H23.1497V11.7194H24.5721V9.23447H28.1386V8.28376H26.1627V7.27852H26.7535V6.32781H25.3674V1.43066H22.0399Z" fill="#6FCCDD"/>
<path d="M16.452 16.8283V15.5195H23.8695V17.8481H25.8091V20.7847H23.8695V22.9752H23.0378V24.6139H23.8695V26.05H16.452V24.6139H15.6203V22.9752H16.452V20.7847H18.3897V17.8481H16.452V16.8283ZM23.8686 0V1.30882V4.89715H25.2547V5.84786H24.6639V6.8531H25.9245V7.80381H23.8686V10.2887H21.6563V12.1938H14.2342V10.2887H16.4511V7.8029H19.2223V6.85219H16.4511V5.84695H17.8371V4.89624H16.4511V0H13.1254V4.89715H14.5115V5.84786H13.9207V6.8531H15.4204V7.80381H13.1263V10.2887H10.9095V12.1938H1.82959V14.5706H4.0464V15.5195H13.1263V17.8481H15.0659V20.7847H13.1263V22.9752H12.2947V24.6139H13.1263V26.05H4.0464V29.3756H13.1263V32.8603H13.9579V38.0929H13.2881V41.5694H15.8984V38.0929H17.2845V32.8603H16.4529V29.3756H23.8704V32.8603H24.6993V38.0929H23.8704V41.5694H26.6398V38.0929H28.0259V32.8603H27.1942V29.3756H36.2732V26.209H27.197V24.6139H26.3653V22.9752H27.197V20.7847H29.1366V17.8481H27.197V15.5195H36.276V14.5706H34.0592V12.1938H24.9802V10.2887H27.197V7.8029H29.9682V6.85219H27.197V5.84695H28.583V4.89624H27.197V0H23.8686Z" fill="#ED1E24"/>
<path d="M15.4905 17.3844V16.0756H22.9081V18.4042H24.8477V21.3409H22.9081V23.5313H22.0764V25.1701H22.9081V26.6061H15.4905V25.1701H14.6589V23.5313H15.4905V21.3409H17.4283V18.4042H15.4905V17.3844ZM22.9081 0.556152V1.86497V5.4533H24.2941V6.40401H22.9081V7.40925H25.6793V8.35996H22.9081V10.8449H20.6958V12.7499H13.2737V10.8449H15.4905V8.35996H18.2618V7.40925H15.4905V6.40401H16.8766V5.4533H15.4905V0.556152H12.1649V5.4533H13.5509V6.40401H12.1649V7.40925H14.9361V8.35996H12.1649V10.8449H9.94807V12.7499H0.868164V15.1267H3.08497V16.0756H12.1649V18.4042H14.1045V21.3409H12.1649V23.5313H11.3332V25.1701H12.1649V26.6061H1.4944V29.9318H12.1649V33.4165H12.9965V38.649H11.6104V42.1256H14.9361V38.649H16.3222V33.4165H15.4905V29.9318H22.9081V33.4165H23.737V38.649H22.3509V42.1256H25.6766V38.649H27.0626V33.4165H26.231V29.9318H35.31V26.6061H26.2337V25.1701H25.4021V23.5313H26.2337V21.3409H28.1733V18.4042H26.2337V16.0756H35.3127V15.1267H33.0959V12.7499H24.0169V10.8449H26.2337V8.35996H29.005V7.40925H26.2337V6.40401H27.6198V5.4533H26.2337V0.556152H22.9081Z" fill="white"/>
</svg>
